<svg xmlns="http://www.w3.org/2000/svg" xmlns:xlink="http://www.w3.org/1999/xlink" version="1.1" x="0px" y="0px" viewBox="0 0 100 125" style="enable-background:new 0 0 100 100;" xml:space="preserve"><path d="M69.3,44c0.3-0.5,0.5-0.9,0.8-1.3c0.7-1.1,1.7-1.4,2.9-1.4c1.2,0,2.1,0.6,2.8,1.8c0.6,1.1,0.8,2.2,0.6,3.5  c-0.2,1.2-0.8,2.2-1.7,3.1c-0.5,0.5-0.9,0.9-1.4,1.4c-1.1,1-2,2.2-2.7,3.5c-0.2,0.4-0.3,0.8-0.4,1.2c0,0.2,0,0.4-0.2,0.6  c-0.3,0.3-0.5,0.4-0.7,0c-0.5-0.9-1.3-1.6-1.6-2.6c-0.1-0.5-0.6-0.7-0.9-1c-0.4-0.4-0.9-0.7-1.4-1c-1.6-1-2.4-2.6-2.9-4.4  c-0.4-1.5,0-2.9,0.7-4.2c0.6-1.1,2.3-1.8,3.5-1.5c0.8,0.2,1.3,0.8,1.8,1.4C68.8,43.2,69,43.5,69.3,44z M67.5,45.7  c0.1,0.3-0.2,0.3-0.3,0.5c-0.4,0.4-0.8,0.7-1.2,1.1c-0.2,0.2-0.4,0.4-0.5,0.6c0.1,0,0.1,0,0.2,0c1.2-0.7,2.3-1.6,3.3-2.5  c0.1-0.1,0.2-0.2,0.1-0.4c-0.1-0.1-0.2-0.1-0.4-0.1C68.3,45.3,67.9,45.6,67.5,45.7c0.2-0.2,0.5-0.5,0.8-0.7c0.2-0.2,0.6-0.3,0.4-0.6  c-0.2-0.3-0.5,0.1-0.7,0.2c-1,0.7-2,1.6-2.9,2.5c-0.2,0.2-0.5,0.3-0.4,0.8c0.5-0.3,0.9-0.6,1.3-0.9C66.5,46.5,66.9,46,67.5,45.7z   M64.9,45.6L64.9,45.6c0.1,0.5-0.4,0.7-0.5,1.2c0.6-0.1,0.9-0.5,1.3-0.8c0.8-0.6,1.6-1.3,2.4-1.9c0.1-0.1,0.3-0.2,0.1-0.4  c-0.1-0.2-0.3-0.2-0.4,0c-0.4,0.5-1,0.5-1.6,0.7c0.4-0.5,1-0.7,1.3-1.2c-0.1-0.3-0.4-0.4-0.7-0.6c-0.3-0.1-0.5-0.2-0.7,0.2  c-0.2,0.4-0.6,0.6-0.9,0.8c-0.3,0.3-0.6,0.5-0.9,0.8c-0.3,0.3-0.6,0.5-0.9,1c0.5-0.1,0.7-0.3,0.9-0.5c0.7-0.7,1.5-1.2,2.2-1.9  c0.1-0.1,0.3-0.2,0.4,0c-0.1,0.2-0.3,0.4-0.4,0.5c-0.8,0.5-1.4,1.2-2.1,1.8c-0.4,0.3-0.6,0.6-0.9,0.9c-0.1,0.1-0.2,0.3,0,0.5  c0.1,0.1,0.3,0,0.4-0.1C64.1,46.1,64.4,45.7,64.9,45.6z M64.5,49.9c0-0.2,0.2-0.5,0.1-0.6c-0.5-0.3-0.1-0.6,0.1-0.8  c0.1-0.2,0.4-0.2,0.3-0.5c-0.4-0.1-0.7,0.5-1.1,0.2c0-0.3,0.3-0.4,0.3-0.8c-0.2,0.1-0.7-0.2-0.7,0.3C63.6,48.6,63.8,49.4,64.5,49.9  c0.1,0.4,0.4,0.6,0.6,0.8c0.5,0.5,0.7,0.5,1.3,0c0.3-0.2,0.6-0.3,0.9,0c-0.2,0.2-0.4,0.4-0.6,0.5c-0.2,0.2-0.3,0.3,0,0.6  c0.7,0.7,0.8,0.7,1.6,0.1c0.3-0.3,0.7-0.5,0.9-0.9c0.3-0.5,0.8-0.2,1.1-0.4c0.8-0.5,1.5-1,2.1-1.8c-0.8-0.1-1.1,0.6-1.8,0.6  c0.8-0.9,1.5-1.5,2.6-1.8c-0.1,0.4-0.7,0.6-0.5,1c0.2,0.4,0,0.6-0.2,0.8c-0.9,0.6-1.7,1.4-2.5,2.2c-0.1,0.1-0.3,0.2-0.2,0.4  c0.3,0.1,0.4-0.1,0.6-0.3c0.5-0.4,0.9-0.8,1.5-1.1c0.5-0.2,0.8-0.5,1.1-0.9c0.3-0.3,0.8-0.6,0.5-1.2c0,0,0.1-0.1,0.1-0.1  c0.4-0.6,0.8-1.1,1.4-1.2c0.7-0.2,0.8-0.7,0.8-1.2c0.1-0.7-0.1-1.4-0.4-2.1c-0.1-0.3-0.3-0.4-0.6-0.1c-0.4,0.4-0.9,0.8-1.3,1.1  c-0.1,0.1-0.3,0.1-0.4-0.1c-0.1-0.1,0-0.2,0.1-0.3c0.1-0.1,0.3-0.2,0.4-0.3c0.4-0.3,0.7-0.5,1.1-0.8c0.1-0.1,0.3-0.2,0.2-0.4  c-0.1-0.2-0.3-0.1-0.5,0c-0.2,0.1-0.3,0.2-0.4,0.3c-0.6,0.4-1.1,0.9-1.7,1.3c-0.2,0.2-0.5,0.4-0.8,0.3c0.4-0.6,1.1-0.7,1.5-1.1  c0.4-0.4,1-0.7,1.2-1.4c-1.3,0.7-2.4,1.6-3.4,2.7c0.5,0.5,1,0.2,1.5,0.3c-0.3,0.2-0.5,0.5-0.8,0.5c-0.6,0-0.9,0.3-1.3,0.7  c-0.3,0.3-0.6,0.6-1.1,0.4c0.6-0.4,1.2-0.8,1.8-1.2c-0.6-0.5-0.7-0.5-1.2-0.2c-1,0.8-2,1.6-3,2.5c-0.4,0.3-0.9,0.7-1.1,1.2  c0.3,0.2,0.4-0.3,0.7-0.1C65.6,49.4,65.2,49.9,64.5,49.9z M70.2,44.4c1.3-0.5,2.3-1.2,3.2-2.2c-0.7-0.4-0.9,0.5-1.4,0.6  c0-0.5-0.1-0.6-0.5-0.4C70.7,42.7,70.4,43.4,70.2,44.4z M69.3,51.6c-0.5,0.3-0.9,0.6-1.1,1c-0.3,0.4,0.1,0.5,0.3,0.8  c0.2,0.2,0.4,0.2,0.6,0c0.2-0.2,0.4-0.5,0.6-0.4c0.7,0.3,0.8-0.2,1-0.7c-0.3,0.2-0.7-0.1-1,0.2c-0.2,0.2-0.5,0.6-0.9,0.4  C68.7,52.4,69.2,52.2,69.3,51.6z M69.6,55c-0.1-0.6,0.2-1.1,0.6-1.7C68.7,54.2,68.9,54.1,69.6,55z M65.9,42.3  c-0.4,0.1-0.7,0.2-0.8,0.6c0.2,0,0.2-0.1,0.3-0.1C65.6,42.6,65.8,42.5,65.9,42.3z"/><path d="M30.4,43.9c0.5-0.6,0.7-1.2,1.1-1.7c1.1-1.3,4-1.5,5.3,0.6c1,1.7,1,3.5,0.2,5.2c-0.5,0.9-1.2,1.7-2,2.4  c-1.2,1-2.3,2.2-3.1,3.6c-0.3,0.5-0.5,1.1-0.6,1.7c0,0.2,0,0.3-0.1,0.5c-0.3,0.4-0.6,0.4-0.8,0c-0.5-0.9-1.2-1.6-1.6-2.6  c-0.1-0.4-0.6-0.7-0.9-1c-0.4-0.4-0.9-0.7-1.3-1c-1.7-1.1-2.5-2.7-2.9-4.5c-0.4-1.5,0-2.9,0.8-4.1c0.7-1.1,1.7-1.5,3-1.5  c1,0,1.7,0.7,2.3,1.4C29.9,43.2,30.1,43.5,30.4,43.9z M28.7,45.7c0.1,0.3-0.2,0.3-0.3,0.5c-0.4,0.4-0.8,0.7-1.2,1.1  c-0.2,0.2-0.4,0.4-0.5,0.6c0.1,0,0.1,0,0.2,0c1.2-0.7,2.3-1.6,3.3-2.5c0.1-0.1,0.2-0.2,0.1-0.4C30.1,45,30,45,29.8,45  C29.4,45.2,29.1,45.6,28.7,45.7c0.2-0.2,0.5-0.5,0.8-0.7c0.2-0.2,0.6-0.3,0.4-0.6c-0.2-0.3-0.5,0.1-0.7,0.2c-1,0.7-2,1.6-2.9,2.5  c-0.2,0.2-0.4,0.3-0.4,0.8c0.5-0.3,0.9-0.6,1.3-0.9C27.6,46.5,28.1,46,28.7,45.7z M26.1,45.5L26.1,45.5c0.1,0.5-0.4,0.7-0.5,1.2  c0.6-0.1,0.9-0.5,1.3-0.8c0.8-0.6,1.6-1.3,2.4-1.9c0.1-0.1,0.3-0.2,0.1-0.4c-0.1-0.2-0.3-0.2-0.4-0.1c-0.4,0.5-1,0.6-1.6,0.7  c0.3-0.5,0.9-0.7,1.2-1.1c-0.1-0.3-0.4-0.4-0.7-0.6c-0.3-0.2-0.5-0.2-0.7,0.2c-0.2,0.3-0.6,0.6-0.9,0.8c-0.6,0.5-1.3,1.1-1.9,1.9  c0.5-0.2,0.8-0.4,1-0.6c0.7-0.7,1.5-1.2,2.2-1.9c0.1-0.1,0.3-0.2,0.4,0c-0.1,0.2-0.3,0.4-0.4,0.5c-0.8,0.5-1.4,1.2-2.1,1.8  c-0.4,0.3-0.6,0.6-0.9,0.9c-0.1,0.1-0.2,0.3,0,0.5c0.1,0.1,0.3,0,0.4-0.1C25.3,46.1,25.6,45.6,26.1,45.5z M25.7,49.9  c0-0.2,0.2-0.5,0.1-0.6c-0.5-0.3-0.1-0.6,0.1-0.8c0.1-0.2,0.4-0.2,0.3-0.5c-0.4,0-0.7,0.5-1.1,0.3c-0.1-0.3,0.3-0.5,0.2-0.8  c-0.2,0.1-0.7-0.2-0.7,0.3C24.8,48.6,24.9,49.4,25.7,49.9c0.1,0.4,0.4,0.6,0.6,0.8c0.5,0.5,0.7,0.5,1.3,0c0.3-0.2,0.6-0.3,0.9-0.1  c-0.1,0.2-0.3,0.3-0.5,0.4c-0.5,0.4-0.5,0.4,0,0.8c0.1,0.1,0.1,0.1,0.2,0.2c0.5,0.4,0.5,0.4,1,0c0.5-0.4,0.9-0.8,1.3-1.3  c0.1-0.1,0.3-0.4,0.4-0.3c0.5,0.3,0.7-0.2,1-0.3c0.6-0.4,1.1-0.9,1.7-1.4c-0.8-0.1-1.2,0.6-1.9,0.6c0.8-0.9,1.6-1.5,2.6-1.8  c-0.1,0.4-0.7,0.6-0.5,1c0.2,0.4,0,0.6-0.2,0.8c-0.9,0.7-1.7,1.4-2.5,2.2c-0.1,0.1-0.3,0.2-0.2,0.4c0.3,0.1,0.5-0.2,0.6-0.3  c0.4-0.4,0.9-0.8,1.4-1c0.5-0.2,0.8-0.5,1.1-0.9c0.3-0.3,0.8-0.6,0.5-1.2c0,0,0.1-0.1,0.1-0.1c0.4-0.6,0.8-1.1,1.4-1.2  c0.6-0.2,0.7-0.6,0.8-1.1c0.1-0.8-0.1-1.5-0.4-2.2c-0.1-0.3-0.3-0.4-0.6-0.1c-0.4,0.4-0.9,0.8-1.3,1.1c-0.1,0.1-0.2,0.1-0.3,0  c-0.1-0.1-0.1-0.3,0.1-0.4c0.1-0.1,0.3-0.2,0.4-0.3c0.4-0.3,0.7-0.5,1.1-0.8c0.1-0.1,0.3-0.2,0.2-0.4c-0.1-0.2-0.3-0.1-0.5,0  c-0.2,0.1-0.3,0.2-0.4,0.3c-0.6,0.4-1.1,0.9-1.7,1.3c-0.2,0.2-0.5,0.4-0.8,0.3c0.4-0.6,1.1-0.7,1.5-1.2c0.4-0.4,1-0.7,1.3-1.4  c-1.1,0.4-3,2-3.5,2.8c0.4,0.4,0.9,0.1,1.5,0.2c-0.3,0.2-0.5,0.5-0.8,0.5c-0.6,0-0.9,0.3-1.3,0.7c-0.3,0.3-0.6,0.6-1.1,0.4  c0.6-0.4,1.2-0.8,1.8-1.2c-0.6-0.5-0.7-0.5-1.2-0.2c-1,0.8-2,1.6-3,2.5c-0.4,0.3-0.9,0.7-1.1,1.2c0.3,0.1,0.4-0.3,0.7-0.1  C26.7,49.3,26.4,49.8,25.7,49.9z M33.3,42.1c-1.2,0.2-1.9,1-1.8,2.1c1.2-0.5,2.2-1.1,3-2.2C34.3,42,34,42,33.8,42.2  c-0.2,0.2-0.3,0.3-0.5,0.5c-0.1,0.1-0.1,0.1-0.3,0C33.2,42.5,33.2,42.4,33.3,42.1z M31.8,52.3c-0.8-0.3-1.2,0.6-2,0.6  c0.1-0.5,0.6-0.7,0.7-1.4c-0.5,0.3-0.8,0.6-1.1,1c-0.3,0.4,0.1,0.5,0.3,0.8c0.2,0.2,0.4,0.2,0.6,0c0.2-0.2,0.3-0.4,0.6-0.3  C31.4,53.1,31.6,52.8,31.8,52.3z M31.3,53.4c-0.4,0.1-0.6,0.4-0.9,0.6c-0.1,0.1-0.1,0.2-0.1,0.3c0.1,0.2,0.2,0.6,0.5,0.7  c0.4-0.3-0.1-0.5,0-0.8C30.9,53.9,31.3,53.8,31.3,53.4z M27.2,42.2c-0.6,0-0.8,0.2-1,0.6c0.1,0,0.2,0,0.2,0  C26.7,42.7,26.9,42.5,27.2,42.2z"/><path d="M10.8,43.8c0.4-0.3,0.5-0.7,0.7-1c0.6-1.2,1.8-1.6,3-1.6c1.3,0,2.2,0.6,2.8,1.8c0.6,1.1,0.8,2.2,0.6,3.4  c-0.2,1.2-0.8,2.1-1.6,3c-0.5,0.6-1.1,1.1-1.7,1.6c-1.1,1-1.9,2.1-2.5,3.4c-0.2,0.4-0.3,0.8-0.3,1.2c0,0.2,0,0.4-0.2,0.6  c-0.3,0.4-0.6,0.4-0.8,0c-0.5-0.9-1.2-1.6-1.6-2.6c-0.2-0.5-0.6-0.7-1-1.1c-0.4-0.4-0.9-0.7-1.4-1c-1.6-1-2.3-2.5-2.7-4.3  c-0.4-1.5-0.1-2.8,0.6-4.1c0.7-1.2,1.8-1.7,3-1.7c1,0,1.8,0.6,2.3,1.4C10.4,43.2,10.5,43.5,10.8,43.8z M9.4,45.4  c-0.5,0.7-1.2,1.1-1.8,1.7c-0.2,0.2-0.4,0.4-0.5,0.8c0.5-0.1,0.7-0.4,1-0.5c0.6-0.4,1.1-1,1.9-1.2c-0.4,0.7-1.1,1.1-1.7,1.6  c-0.4,0.3-0.8,0.6-1.1,1.1c-0.4,0.6,0.4,0,0.3,0.3c-0.1,0.1-0.1,0.2-0.2,0.2C7,49.4,7,49.5,6.9,49.5c-0.2,0.1-0.3,0.3-0.5,0.2  c-0.3-0.1,0-0.4-0.2-0.5c-0.4-0.2-0.2-0.4,0-0.7c0.1-0.2,0.5-0.3,0.5-0.7c-0.4,0-0.7,0.5-1.1,0.3c0-0.3,0.3-0.5,0.2-0.7  c-0.7,0-0.7,0-0.6,0.6c0.2,1.2,1,1.9,1.8,2.7c0.3,0.3,0.6,0.3,0.9,0c0.3-0.3,0.7-0.4,1.1-0.3c-0.2,0.3-0.5,0.4-0.7,0.6  c-0.1,0.1-0.3,0.2-0.2,0.4c0.2,0.3,0.5,0.5,0.8,0.7c0.3,0.2,0.5-0.1,0.7-0.3c0.4-0.3,0.8-0.6,1.1-1c0.3-0.6,0.9-0.3,1.3-0.6  c0.3-0.2,0.6-0.3,0.8-0.6c0.4-0.4,0.9-0.6,1.2-1.2c-0.7-0.1-1.1,0.6-1.9,0.7c0.8-0.8,1.5-1.5,2.5-1.8c-0.2,0.4-0.7,0.7-0.3,1.3  c0.1,0.1-0.2,0.3-0.3,0.4c-1,0.7-1.8,1.5-2.7,2.4c-0.1,0.1-0.3,0.2-0.2,0.4c0.2,0.1,0.3,0,0.5-0.2c0.7-0.6,1.4-1,2.1-1.5  c0.5-0.4,1.4-0.8,1.2-1.8c0-0.1,0.1-0.3,0.2-0.4c0.4-0.5,0.8-1,1.5-1.1c0.3-0.1,0.4-0.3,0.5-0.5c0.5-1,0.1-1.9-0.3-2.8  c-0.1-0.3-0.3-0.2-0.5,0c-0.5,0.5-1,0.9-1.6,1.3c-0.2-0.3-0.2-0.5,0.1-0.7c0.5-0.3,0.9-0.7,1.4-1c0.1-0.1,0.2-0.1,0.1-0.3  c-0.1-0.2-0.2-0.2-0.4-0.2c-0.3,0.1-0.5,0.3-0.8,0.5c-0.2,0.2-0.4,0.4-0.7,0.3c0.3-0.6,0.9-0.7,1.1-1.4c-1.3,0.7-2.4,1.6-3.4,2.6  c0.4,0.5,0.9,0.1,1.3,0.4c-0.3,0.6-0.9,0.3-1.3,0.6l0,0c-0.3-0.9-0.6-1-1.3-0.4c-0.3,0.3-0.6,0.6-1.1,0.7c0.1-0.4,0.4-0.5,0.7-0.7  c0.1-0.1,0.2-0.2,0.1-0.4c-0.1-0.2-0.3-0.2-0.4-0.1C9.9,45.2,9.7,45.4,9.4,45.4c0-0.2,0.2-0.3,0.3-0.4c0.2-0.2,0.8-0.3,0.5-0.7  C10,44,9.6,44.4,9.4,44.6c-1,0.7-1.9,1.5-2.7,2.3c-0.2,0.2-0.5,0.3-0.4,0.8c0.6-0.4,1.1-0.8,1.6-1.2C8.4,46.2,8.8,45.7,9.4,45.4z   M6.3,45.4L6.3,45.4c0.2,0.3,0.1,0.5-0.1,0.8c-0.1,0.2-0.3,0.4-0.4,0.7C7.3,46,8.5,45,9.7,44c0.1-0.1,0.3-0.2,0.1-0.4  c-0.2-0.2-0.3-0.1-0.5,0c-0.1,0.1-0.3,0.2-0.4,0.3c-0.2,0.2-0.5,0.2-0.7-0.1c0-0.2,0.2-0.2,0.3-0.3c0.1-0.1,0.3-0.2,0.4-0.3  c0.2-0.1,0.2-0.3,0-0.4c-0.3-0.2-0.5-0.4-0.8-0.4c-0.3,0-0.3,0.3-0.5,0.4c-0.2,0.2-0.3,0.3-0.5,0.5c-0.6,0.5-1.2,1-1.8,1.5  C5.2,44.9,5,45,5.1,45.3c1.2-0.8,2.1-1.9,3.4-2.7c-0.1,0.4-0.3,0.6-0.5,0.7c-0.7,0.6-1.5,1.2-2.2,1.8c-0.3,0.3-0.6,0.6-0.9,1  c-0.1,0.1-0.2,0.3,0,0.4c0.1,0.1,0.2,0,0.3-0.1C5.6,46.1,6,45.8,6.3,45.4z M11.9,44.2c0.3,0.1,0.5-0.2,0.6-0.4  c0.2-0.3,0.5,0,0.8-0.2c0.6-0.5,1.2-0.9,1.7-1.5c-0.3-0.2-0.6-0.2-0.8,0.1c-0.2,0.2-0.4,0.4-0.7,0.6c-0.1,0.1-0.1,0-0.1,0  c0-0.2,0.4-0.3,0.3-0.6C12.6,42.3,12,42.9,11.9,44.2z M12.2,52.3c-0.8-0.3-1.2,0.6-1.9,0.6c0-0.6,0.6-0.7,0.6-1.2  c-0.3,0-0.4,0.2-0.6,0.4c-0.7,0.7-0.7,0.7,0,1.4c0,0,0.1,0,0.2,0c0.3-0.2,0.5-0.7,1.1-0.5C11.8,53.1,12.1,52.7,12.2,52.3z   M11.2,54.9c-0.3-0.6,0.3-1,0.5-1.5C10.4,54.1,10.3,54.1,11.2,54.9z M7.5,42.3c0,0-0.1-0.1-0.1-0.1c-0.7,0.3-1,0.9-1.4,1.5  C6.5,43.2,7,42.8,7.5,42.3z"/><path d="M49.7,43.8c0.4-0.3,0.5-0.7,0.7-1c0.6-1.2,1.8-1.6,3-1.6c1.3,0,2.2,0.6,2.8,1.8c0.6,1.1,0.8,2.2,0.6,3.4  c-0.2,1.2-0.8,2.1-1.6,3c-0.5,0.6-1.2,1.1-1.7,1.7c-1,1-1.8,2.1-2.5,3.3c-0.2,0.4-0.3,0.8-0.3,1.2c0,0.2,0,0.4-0.2,0.6  c-0.3,0.4-0.6,0.4-0.8,0c-0.5-0.9-1.2-1.6-1.6-2.6c-0.2-0.5-0.6-0.7-1-1.1c-0.4-0.4-0.9-0.7-1.4-1c-1.6-1-2.3-2.5-2.7-4.3  c-0.4-1.5-0.1-2.8,0.6-4.1c0.7-1.2,1.7-1.7,3-1.7c1,0,1.8,0.6,2.3,1.4C49.2,43.2,49.4,43.6,49.7,43.8z M48.3,45.5  c-0.5,0.7-1.2,1.1-1.8,1.7c-0.2,0.2-0.4,0.4-0.6,0.8c0.4-0.2,0.7-0.4,1-0.6c0.6-0.4,1.1-1,1.8-1.2c-0.4,0.7-1.1,1.1-1.7,1.6  c-0.4,0.3-0.8,0.6-1.1,1.1c-0.4,0.6,0.4,0,0.3,0.3c-0.1,0.1-0.3,0.3-0.4,0.4c-0.2,0.1-0.3,0.3-0.5,0.2c-0.3-0.1,0-0.4-0.2-0.5  c-0.4-0.3-0.1-0.5,0-0.8c0.1-0.2,0.4-0.3,0.4-0.6c-0.4,0-0.7,0.5-1.1,0.3c0-0.3,0.3-0.5,0.2-0.7c-0.7,0-0.7,0-0.6,0.6  c0.2,1.2,1,1.9,1.8,2.7c0.3,0.3,0.6,0.3,0.9,0c0.3-0.3,0.7-0.4,1.1-0.3c-0.1,0.3-0.4,0.4-0.6,0.6c-0.3,0.2-0.3,0.4,0,0.7  c0.1,0.1,0.2,0.2,0.3,0.3c0.3,0.3,0.6,0.3,0.9,0c0.4-0.4,0.9-0.8,1.3-1.2c0.1-0.2,0.4-0.4,0.4-0.4c0.7,0.3,1-0.3,1.4-0.6  c0.4-0.3,1-0.7,1.3-1.2c-0.8-0.1-1.1,0.6-1.8,0.7c1.2-1.2,1.7-1.5,2.5-1.8c-0.2,0.4-0.7,0.7-0.3,1.3c0.1,0.1-0.2,0.3-0.3,0.4  c-1,0.7-1.8,1.5-2.7,2.4c-0.1,0.1-0.3,0.2-0.2,0.4c0.2,0,0.3,0,0.5-0.2c0.7-0.6,1.4-1,2.1-1.5c0.5-0.4,1.4-0.8,1.2-1.8  c0-0.1,0.1-0.3,0.2-0.4c0.4-0.5,0.8-1,1.5-1.1c0.3-0.1,0.4-0.3,0.5-0.5c0.5-1,0.1-1.9-0.3-2.8c-0.1-0.3-0.3-0.2-0.5,0  c-0.5,0.5-1,0.9-1.6,1.3c-0.2-0.3-0.2-0.5,0.1-0.7c0.5-0.3,0.9-0.7,1.4-1c0.1-0.1,0.2-0.1,0.1-0.3c-0.1-0.2-0.2-0.2-0.4-0.2  c-0.3,0.1-0.5,0.3-0.8,0.5c-0.2,0.2-0.4,0.4-0.8,0.3c0.3-0.2,0.5-0.4,0.7-0.6c0.2-0.2,0.5-0.3,0.5-0.8c-1.4,0.9-2.5,1.7-3.5,2.8  c0.4,0.5,0.9,0.1,1.3,0.4c-0.3,0.6-0.9,0.4-1.3,0.6l0,0c-0.3-0.9-0.6-1-1.3-0.4c-0.3,0.3-0.6,0.6-1.1,0.7c0.1-0.4,0.4-0.5,0.7-0.7  c0.1-0.1,0.2-0.2,0.1-0.4c-0.1-0.2-0.3-0.2-0.4-0.1C48.8,45.2,48.6,45.4,48.3,45.5c0-0.2,0.2-0.3,0.3-0.4c0.2-0.2,0.8-0.3,0.5-0.7  c-0.2-0.3-0.6,0.1-0.9,0.3c-1,0.7-1.9,1.5-2.7,2.3c-0.2,0.2-0.5,0.3-0.4,0.8c0.6-0.4,1.1-0.8,1.6-1.2C47.2,46.2,47.6,45.7,48.3,45.5  z M45.2,45.5L45.2,45.5c0.2,0.3,0.1,0.5-0.1,0.8c-0.1,0.2-0.3,0.4-0.4,0.7c1.4-0.8,2.6-1.9,3.8-2.9c0.1-0.1,0.3-0.2,0.1-0.4  c-0.2-0.2-0.3-0.1-0.5,0c-0.1,0.1-0.3,0.2-0.4,0.3c-0.2,0.2-0.5,0.2-0.7-0.1c0.1-0.3,0.5-0.4,0.7-0.6c0.1-0.1,0.2-0.2,0.1-0.4  c-0.2-0.2-0.5-0.4-0.9-0.5c-0.3-0.1-0.3,0.3-0.5,0.4c-0.2,0.2-0.3,0.3-0.5,0.5c-0.6,0.5-1.2,1-1.8,1.5c-0.1,0.1-0.3,0.2-0.2,0.5  c1.2-0.8,2.1-1.9,3.4-2.7c-0.1,0.4-0.3,0.6-0.5,0.7c-0.7,0.6-1.5,1.2-2.2,1.8c-0.3,0.3-0.6,0.6-0.9,1c-0.1,0.1-0.2,0.3,0,0.4  c0.1,0.1,0.2,0,0.3-0.1C44.5,46.1,44.8,45.8,45.2,45.5z M53.9,42.2c-0.9-0.4-1,0.6-1.6,0.7c-0.1-0.3,0.4-0.3,0.2-0.6  c-1.1,0.2-1.7,0.9-1.8,2.2c0.4-0.5,1-0.5,1.4-0.8C52.7,43.2,53.2,42.7,53.9,42.2z M49.1,53c0-0.6,0.6-0.8,0.6-1.4  c-0.2,0.1-0.3,0.2-0.4,0.2c-0.2,0.1-0.3,0.3-0.5,0.5c-0.4,0.4-0.4,0.5,0,0.9c0.1,0.1,0.2,0.3,0.5,0.2c0.3-0.2,0.5-0.7,1.1-0.5  c0.3,0.1,0.6-0.3,0.6-0.7C50.2,52.1,49.8,52.8,49.1,53z M50.5,53.5c-1.3,0.8-1.3,0.9-0.3,1.5C49.8,54.3,50.3,53.9,50.5,53.5z   M44.8,43.7c0.5-0.5,1-0.9,1.7-1.5C45.5,42.4,45.2,43.2,44.8,43.7z"/><path d="M88.6,43.9c0.4-0.3,0.5-0.7,0.7-1.1c0.7-1.2,1.8-1.6,3-1.6c1.3,0,2.2,0.6,2.8,1.8c0.6,1.1,0.8,2.2,0.6,3.4  c-0.2,1.2-0.8,2.1-1.6,3c-0.5,0.6-1.1,1.1-1.7,1.6c-1.1,1-1.9,2.1-2.5,3.4c-0.2,0.4-0.3,0.8-0.3,1.2c0,0.2,0,0.5-0.2,0.6  c-0.3,0.3-0.5,0.3-0.7,0c-0.5-0.9-1.3-1.6-1.6-2.6c-0.2-0.5-0.6-0.8-1-1.1c-0.5-0.4-0.9-0.8-1.5-1.1c-1.6-1-2.3-2.5-2.7-4.3  c-0.4-1.4-0.1-2.7,0.5-3.9c0.6-1.2,1.7-1.8,3-1.9c1.1-0.1,1.8,0.6,2.4,1.4C88.2,43.2,88.4,43.6,88.6,43.9z M89,55.1  c0.9-1.9,2.1-3.4,3.4-4.8c0.9-0.9,1.6-1.9,2.3-3c0.8-1.4,0.5-2.5-0.1-3.8c-0.5-1.2-1.8-1.6-2.9-1.4c-1.2,0.2-1.7,1.1-2.1,2.1  c-0.1,0.3-0.1,0.6-0.3,0.9c-0.2,0.4-0.4,0.4-0.6,0.1c-0.2-0.3-0.3-0.6-0.5-0.8c-0.5-0.7-1-1.4-1.8-1.8c-1.7-0.7-3.1,0-3.4,1.8  c-0.2,1.1-0.2,2.2-0.1,3.3c0.2,1.4,0.9,2.5,2.1,3.3c0.8,0.5,1.5,1.2,2.2,1.8C88,53.3,88.4,54.2,89,55.1z"/><path d="M68.9,49.5c1.2-1,2.5-1.9,3.7-2.9c-0.6-0.3-1-0.2-1.4,0.2c-0.4,0.4-0.9,0.8-1.4,1.2c-0.1,0.1-0.3,0.2-0.5,0  c0.4-0.6,1.1-0.9,1.7-1.3c0.6-0.4,1-1,1.7-1.3c0.1,0.3-0.2,0.4-0.2,0.7c1-0.3,1.8-1,2.8-1.6c-0.1,0.7-0.6,0.7-0.9,0.9  c-0.3,0.2-0.6,0.5-0.8,0.9c0.6,0.1,0.9-0.7,1.5-0.6c-0.4,0.7-0.9,1.1-1.4,1.5c-0.1,0.1-0.2,0-0.1-0.1c0.1-0.2,0-0.3-0.2-0.2  c-0.7,0.4-1.5,0.5-2.1,1.2c-0.5,0.5-1.1,0.9-1.7,1.3C69.4,49.5,69.1,49.4,68.9,49.5z"/><path d="M69.3,50.4c-0.6,0.4-1.1,0.9-1.7,1.3c-0.1,0.1-0.2,0.1-0.3,0c-0.1-0.1,0-0.2,0-0.3c0.4-0.5,0.9-0.8,1.5-1.2  C68.9,50.1,69.1,50.2,69.3,50.4z"/><path d="M65.9,50.2c0.4-0.6,0.9-1.1,1.5-1.4c0.1,0,0.2,0,0.3,0.2C67.1,49.4,66.6,49.9,65.9,50.2z"/><path d="M64.9,45.6c-0.1-0.4,0.5-0.4,0.5-0.7C65.5,45.4,65.5,45.4,64.9,45.6C64.9,45.6,64.9,45.6,64.9,45.6z"/><path d="M30,49.4c1.2-1,2.5-1.9,3.7-2.9c-0.6-0.3-1-0.2-1.4,0.2c-0.4,0.4-0.9,0.8-1.4,1.2c-0.1,0.1-0.3,0.2-0.5,0  c0.4-0.6,1.1-0.8,1.7-1.3c0.5-0.5,1.1-0.9,1.7-1.4c0.1,0.4-0.2,0.5-0.2,0.8c1.1-0.3,1.9-1,2.8-1.6c0,0.6-0.5,0.6-0.8,0.9  c-0.3,0.3-0.6,0.5-0.8,0.9c0.6,0,0.8-0.7,1.4-0.6c-0.2,0.5-0.9,1.3-1.3,1.5c-0.2,0.1-0.2,0-0.2-0.2c0-0.1-0.1-0.1-0.1-0.1  c-0.6,0.3-1.3,0.3-1.8,0.8c-0.6,0.6-1.4,1.1-2.1,1.7C30.6,49.4,30.3,49.4,30,49.4C30.1,49.5,30.1,49.5,30,49.4z"/><path d="M30.4,50.3c-0.5,0.4-1,0.7-1.5,1.2c-0.1,0.1-0.3,0.3-0.4,0.1c-0.2-0.2,0-0.3,0.1-0.4c0.3-0.4,0.8-0.7,1.3-1  C30.1,50.1,30.3,50.1,30.4,50.3z"/><path d="M29,48.9c-0.7,0.5-1.3,0.9-1.9,1.4C27.2,49.6,28.2,48.8,29,48.9z"/><path d="M26.1,45.5c0-0.4,0.4-0.4,0.6-0.7C26.6,45.4,26.6,45.4,26.1,45.5C26.1,45.5,26.1,45.5,26.1,45.5z"/><path d="M14.2,45.3c0.2-0.2,0.4-0.2,0.6-0.3c-0.3,0.3-0.5,0.6-0.9,1.1c1.2-0.4,2-1.1,2.9-1.7c0,0.6-0.5,0.7-0.8,0.9  c-0.3,0.3-0.6,0.5-0.9,0.9c0.6,0,0.9-0.6,1.4-0.6c-0.2,0.6-0.8,1.2-1.6,1.7c0.1-0.1,0.2-0.3,0.3-0.4c-0.7,0.1-1.7,0.5-2.1,0.9  c-0.7,0.6-1.4,1.1-2.1,1.6c0,0-0.2,0-0.3,0c1-1.1,2.4-1.8,3.5-2.9c-0.5-0.1-0.9-0.3-1.2,0.2l0,0c-0.2-0.3,0.1-0.5,0.2-0.6  c0.3-0.2,0.6-0.4,0.7-0.8C14,45.3,14.1,45.3,14.2,45.3z"/><path d="M11.1,50.1c-0.7,0.6-1.4,0.9-1.8,1.5c-0.1,0.1-0.2,0.2-0.4,0.1c-0.1-0.1,0-0.3,0.1-0.4C9.5,50.7,10.1,50.1,11.1,50.1z"/><path d="M7.4,50.1c0.5-0.5,1-1.2,1.8-1.3c0,0.1,0.1,0.1,0.1,0.2c-0.6,0.4-1.2,0.9-1.7,1.3C7.5,50.2,7.4,50.1,7.4,50.1z"/><path d="M12.9,46.6c-0.5,0.4-1,0.8-1.5,1.1c-0.2,0.1-0.3,0.3-0.6,0c0.5-0.6,1.2-0.9,1.9-1.2C12.8,46.5,12.9,46.6,12.9,46.6  C12.9,46.7,12.9,46.6,12.9,46.6z"/><path d="M12.2,45.9c-0.3,0.2-0.5,0.4-0.8,0.6c-0.3,0.2-0.5,0.4-1,0.3c0.6-0.4,1.1-0.8,1.6-1C12.1,45.8,12.2,45.9,12.2,45.9  C12.2,46,12.2,45.9,12.2,45.9z"/><path d="M8.4,48.4c0.2-0.4,0.5-0.5,0.7-0.6C8.9,48,8.8,48.3,8.4,48.4z"/><path d="M14.2,45.3c-0.1,0-0.2,0-0.2,0c-0.1,0-0.3,0.1-0.4,0.1C13.9,44.9,14,44.9,14.2,45.3z"/><path d="M6.3,45.4c0.3-0.2,0.5-0.4,0.8-0.6C7,45.5,7,45.5,6.3,45.4C6.3,45.4,6.3,45.4,6.3,45.4z"/><path d="M14.3,44c-0.4,0.4-0.7,0.9-1.4,0.9C13.6,44.2,13.6,44.2,14.3,44z"/><path d="M53,45.3c0.2-0.2,0.4-0.2,0.6-0.3c-0.3,0.3-0.5,0.6-0.9,1.1c1.1-0.4,2-1,2.9-1.7c0,0.6-0.5,0.7-0.8,0.9  c-0.3,0.3-0.6,0.5-0.9,0.9c0.6,0,0.9-0.6,1.4-0.7c-0.2,0.6-0.8,1.2-1.6,1.7c0.1-0.1,0.2-0.3,0.3-0.4c-0.7,0.1-1.7,0.5-2.1,0.9  c-0.7,0.6-1.4,1.1-2.1,1.6c-0.1,0-0.2,0-0.3,0c1-1.1,2.4-1.8,3.5-2.9c-0.5-0.1-0.9-0.4-1.3,0.2l0,0c-0.2-0.3,0.1-0.5,0.2-0.6  c0.3-0.2,0.6-0.4,0.7-0.8C52.8,45.3,52.9,45.3,53,45.3z"/><path d="M47.7,51.9c0-0.6,0.4-0.8,0.6-1c0.8-0.6,0.8-0.6,1.7-0.7C49.1,50.7,48.5,51.3,47.7,51.9z"/><path d="M46.2,50.1c0.4-0.5,0.9-0.9,1.4-1.3c0.1-0.1,0.3-0.1,0.4,0c0.2,0.2,0,0.2-0.1,0.3c-0.5,0.4-1,0.7-1.5,1.1  C46.3,50.2,46.3,50.2,46.2,50.1z"/><path d="M51.8,46.7c-0.5,0.4-1,0.8-1.5,1.1c-0.2,0.1-0.3,0.3-0.6,0c0.5-0.5,1.2-0.9,1.9-1.3C51.6,46.6,51.7,46.7,51.8,46.7  C51.8,46.7,51.8,46.7,51.8,46.7z"/><path d="M51.1,46c-0.3,0.2-0.5,0.4-0.8,0.6c-0.3,0.2-0.5,0.4-1,0.3c0.6-0.4,1.1-0.8,1.6-1C50.9,45.9,51,46,51.1,46  C51.1,46,51.1,46,51.1,46z"/><path d="M47.2,48.5c0.2-0.4,0.4-0.5,0.7-0.7C47.8,48.1,47.6,48.3,47.2,48.5z"/><path d="M53,45.3c-0.1,0-0.2,0-0.2,0c-0.1,0-0.3,0.1-0.4,0.1C52.8,45,52.8,45,53,45.3z"/><path d="M45.2,45.5c0.3-0.2,0.5-0.4,0.8-0.6C45.8,45.5,45.8,45.5,45.2,45.5C45.2,45.4,45.2,45.5,45.2,45.5z"/><path d="M51.8,44.8c0.4-0.4,0.7-0.7,1.3-0.9C52.7,44.7,52.5,44.8,51.8,44.8z"/><text x="0" y="115" fill="#000000" font-size="5px" font-weight="bold" font-family="'Helvetica Neue', Helvetica, Arial-Unicode, Arial, Sans-serif">Created by Alex Muravev</text><text x="0" y="120" fill="#000000" font-size="5px" font-weight="bold" font-family="'Helvetica Neue', Helvetica, Arial-Unicode, Arial, Sans-serif">from the Noun Project</text></svg>