<svg xmlns="http://www.w3.org/2000/svg" data-name="Слой 1" viewBox="0 0 100 125" x="0px" y="0px"><title>book 2-01</title><path d="M93.343,60.55889c2.373-.47386,4.30142.95738,4.26633,2.99142a1.99965,1.99965,0,0,1-.49764,1.17643,7.70914,7.70914,0,0,1-5.12675,2.30473c-3.03853.37861-6.06911,0.84472-9.1069,1.23285-2.85974.36541-5.72557,0.66516-8.58655,1.01822-1.841.2272-3.67813,0.49856-5.74133,0.78081a36.48324,36.48324,0,0,0,2.89736,3.89815c2.0901,2.15518,4.35121,4.14367,6.511,6.2326a6.85522,6.85522,0,0,1,.84457,1.28912,5.24205,5.24205,0,0,1-1.62008.39193c-1.31709-.12117-2.61317-0.40487-3.92112-0.605a8.11864,8.11864,0,0,0-1.04035-.00616c0.38551,1.56633.753,2.98227,1.07092,4.41091a1.25151,1.25151,0,0,1-.08993.97894,1.62335,1.62335,0,0,1-1.01687.033,1.14277,1.14277,0,0,1-.60637-0.2486c-2.85511-2.57466-6.3409-4.41956-8.72226-7.548-1.85564-2.4378-2.50319-5.28-2.8084-8.48317-0.43974,0-.94293-0.019-1.44571.00358q-2.219.09986-4.43759,0.22814c-3.66559.21745-7.33665,0.351-10.99445,0.69991a6.26731,6.26731,0,0,1-5.6927-2.41c-1.51534-1.75546-3.023-3.51885-4.58524-5.23185-1.2609-1.38263-2.599-2.69446-3.901-4.0395-1.5039-1.55361-2.97148-3.1441-4.51547-4.6568-3.388-3.31935-6.84074-6.57291-10.21716-9.90379Q9.47542,40.37749,4.80487,35.544a8.20994,8.20994,0,0,1-2.12629-2.80837,8.42364,8.42364,0,0,1,.6235-5.80509A13.33267,13.33267,0,0,1,12.602,18.80991c2.63676-.72363,5.37774-1.01451,8.07038-1.51014a115.39574,115.39574,0,0,1,11.90671-1.41543c5.41455-.42491,10.81381-1.17925,16.22541-1.69846,2.83612-.27211,5.68536-0.31908,8.527-0.51687,1.37571-.09576,2.74881-0.39371,4.12035-0.42051a2.69689,2.69689,0,0,1,1.71174.70233c1.9454,1.80024,3.67989,3.84729,5.73926,5.50026,3.60256,2.89169,7.32988,5.6398,11.11324,8.29773,3.48828,2.45063,7.13824,4.67573,10.67895,7.0552,1.889,1.26948,3.71619,2.63119,5.52888,4.00608a7.57779,7.57779,0,0,1,1.12761,1.43535A2.76,2.76,0,0,1,95.798,41.75967c-1.4262.60792-2.12037,2.07219-2.83085,3.41591a11.94972,11.94972,0,0,0-.98159,8.05452c0.303,1.63784.46759,3.30551,0.74791,4.94886C92.86806,58.96774,93.12672,59.73116,93.343,60.55889ZM39.24413,64.70984q0.51186,1.96179,1.02374,3.92359l0.30847-.08149c0.31883-1.07926-.21439-2.25165.4557-3.34318l-1.0937.8928L39.684,65.92505l0.66354-1.35548c-0.33151.04463-.727,0.09788-1.12205,0.15082,0.18674-.48644.3735-0.97286,0.56272-1.46574l-0.78987.12614c0.06833-.47759.12271-0.85768,0.17712-1.23776l-0.34449.06414Q39.03755,63.45851,39.24413,64.70984ZM95.115,40.15807l0.07183-.38408c-1.73363-1.27559-3.42586-2.61091-5.21046-3.81292-2.77677-1.87027-5.65261-3.59815-8.41938-5.48218-2.91787-1.98692-5.7658-4.07446-8.627-6.14132-1.45969-1.05446-2.94073-2.092-4.30274-3.263a29.23979,29.23979,0,0,1-3.23072-3.29285,7.16725,7.16725,0,0,0-6.56667-2.854c-1.97915.20076-3.97593,0.11436-5.96039,0.26468-2.79328.21155-5.58387,0.50317-8.37293,0.798-3.20369.33865-6.402,0.75772-9.60717,1.06858-3.04418.29523-6.10974,0.35012-9.13778,0.77522-3.69811.51916-7.36573,1.32239-11.0493,1.98375-0.87944.15792-1.76987,0.24038-2.65526,0.35752l-0.09525.41253c2.30206,2.03936,4.58876,4.0962,6.91163,6.11182,1.5225,1.32113,3.12553,2.55068,4.64142,3.879,1.85047,1.62147,3.62789,3.3253,5.47225,4.95392q3.87925,3.42548,7.81459,6.78779c1.97923,1.68889,3.97672,3.35931,6.02905,4.95857a2.40754,2.40754,0,0,0,1.68225.40105c4.58486-.72,9.15688-1.54349,13.74016-2.27735,3.3964-.54384,6.80289-1.00928,10.20665-1.4933,4.11258-.58484,8.22537-1.16866,12.34117-1.72218,3.19554-.42978,6.39814-0.78995,9.593-1.22575C91.96632,40.74572,93.53836,40.42908,95.115,40.15807ZM75.90057,80.5255c-1.96155-2.01227-3.95732-3.914-5.78257-5.96832a17.66991,17.66991,0,0,1-4.15253-9.45544c-0.26461-1.82772-.59866-3.64331-0.91656-5.46122a3.75649,3.75649,0,0,0-4.47412-3.36442c-0.7352.09416-1.463,0.26787-2.08579,0.38482a53.94264,53.94264,0,0,1,2.541,5.69461,11.56536,11.56536,0,0,1,.62254,4.78292c-0.58138,4.72661.18876,8.934,3.641,12.24394,1.83415,1.75854,3.86469,3.31309,5.8066,4.95974L71.49693,84.08c-0.28559-1.07174-.58657-2.13926-0.84752-3.21779a1.42627,1.42627,0,0,1-.03035-0.9999,1.27719,1.27719,0,0,1,1.01-.198C73.0811,79.92143,74.51992,80.24125,75.90057,80.5255ZM41.402,48.06081c-1.34868-1.16285-2.67264-2.34469-4.053-3.45773a1.6558,1.6558,0,0,0-1.10695-.16207A5.92774,5.92774,0,0,0,31.939,47.61779c-1.37735,2.2112-2.62262,4.51071-3.78155,6.83966a2.325,2.325,0,0,0,.37809,2.949c1.86871,1.80594,3.63873,3.71468,5.42338,5.60566,0.60579,0.64187,1.13253,1.35851,1.703,2.05025-0.20622-1.45179-.74667-2.87579-0.526-4.199,0.45773-2.74428.61632-5.62475,2.06121-8.127C38.2578,50.89964,39.04362,48.71388,41.402,48.06081ZM25.51221,34.13222c-1.22719-1.096-2.553-2.304-3.91434-3.47105a1.80858,1.80858,0,0,0-.88363-0.24856,4.34806,4.34806,0,0,0-3.76142,1.67722A20.00343,20.00343,0,0,0,12.178,41.42848c1.85318,1.7164,3.6144,3.34761,5.42254,5.02227,0.50476-1.20143.87385-2.26472,1.38539-3.25849a55.20358,55.20358,0,0,1,3.27136-5.92537A21.68972,21.68972,0,0,1,25.51221,34.13222ZM33.42358,41.023c-1.423-1.20823-2.81039-2.40049-4.22245-3.5632a1.027,1.027,0,0,0-.66013-0.07867c-1.59545.1421-2.51295,1.32916-3.41945,2.42828-1.81378,2.19929-3.51642,4.48983-4.14442,7.32926-0.17278.78111-.523,1.87759-0.16687,2.34532a52.86791,52.86791,0,0,0,4.05709,4.3474C26.55584,48.68821,28.88858,44.26765,33.42358,41.023ZM9.59336,38.38832a17.94439,17.94439,0,0,1,7.70685-11.206c-1.30641-1.2-2.67992-2.49941-4.09933-3.7471a2.29928,2.29928,0,0,0-2.61308.34264A25.95483,25.95483,0,0,0,5.885,32.33431c-0.22077.69991-.6009,1.764-0.28934,2.13314A51.33616,51.33616,0,0,0,9.59336,38.38832ZM91.743,44.62368a4.363,4.363,0,0,0-.99733-0.12482c-1.37488.15638-2.749,0.33325-4.11883,0.54095-3.1127.472-6.2149,1.05928-9.3357,1.42968-4.57344.54279-9.16529,0.86779-13.73826,1.41512-3.93611.47117-7.85778,1.11453-11.78378,1.69956q-3.16355.47144-6.31909,1.01074c-0.61853.10594-1.22121,0.32758-1.83114,0.49618l0.03653,0.37145a7.27488,7.27488,0,0,0,1.36476.0908c2.03079-.23584,4.059-0.50575,6.086-0.78453,2.8963-.39825,5.78666-0.86132,8.6869-1.212,3.56759-.43138,7.14448-0.75318,10.714-1.16436,2.93434-.338,5.8627-0.74983,8.79567-1.10614,3.23448-.39294,6.47831-0.698,9.70267-1.1762C89.95908,45.96872,91.26794,46.17889,91.743,44.62368Zm-2.54343,4.56772-0.06271.25538c-1.85473.15522-3.7124,0.271-5.56362,0.47315-5.2457.5727-10.48891,1.17876-15.73281,1.77556-2.82861.32194-5.659,0.6263-8.48422,0.98515-3.11651.39585-6.22805,0.84484-9.34174,1.271-1.779.24352-3.56044,0.46841-5.3343,0.753a2.13415,2.13415,0,0,0-.72558.56315,2.01165,2.01165,0,0,0,.79952.35551c2.0181-.131,4.04322-0.22817,6.04972-0.499,3.29651-.445,6.57514-1.06679,9.87147-1.51388,3.34038-.45312,6.69113-0.81259,10.04085-1.16282,4.49979-.47042,9.00337-0.88661,13.5045-1.33857,1.67994-.1687,3.36114-0.34088,5.03332-0.58657a2.80941,2.80941,0,0,0,.94888-0.67135Zm1.21659,3.0454a1.038,1.038,0,0,0-1.32873-.94448c-3.95773.30709-7.91721,0.57449-11.87564,0.86625-0.93174.06865-1.8642,0.15544-2.7922,0.2769-3.18657.41712-6.37116,0.8548-9.55675,1.28194-3.63147.487-7.26207,0.9835-10.89527,1.4523-2.82194.36413-5.64768,0.68822-8.47088,1.03955-0.50907.06337-1.014,0.17269-1.52089,0.26077l0.067,0.52645c5.078-1.04048,10.289-.3515,15.31812-2.02742,5.14628,0.07672,10.24072-.75588,15.35479-1.33439C79.88359,53.05006,85.07018,52.70269,90.41611,52.2368Zm-46.368,1.33235-0.00518.436a11.54344,11.54344,0,0,0,1.49064-.00894c3.194-.41759,6.38234-0.89767,9.57869-1.287,4.08766-.4978,8.18234-0.915,12.27181-1.393,4.38113-.51208,8.75955-1.05765,13.13968-1.58267,3.11222-.373,6.22643-0.72363,9.33578-1.12631a2.09121,2.09121,0,0,0,.73718-0.59287l-0.18395-.30026q-4.24554.41283-8.491,0.826c-2.38528.2334-4.778,0.39577-7.15382,0.7219-4.41017.60536-8.80711,1.33764-13.21564,1.96053-4.55531.64361-9.11793,1.21918-13.67717,1.82636C46.59911,53.219,45.3238,53.39558,44.04815,53.56916Zm21.934,3.847-0.17257.36036a2.56475,2.56475,0,0,0,1.04688.53077c2.4235-.12784,4.848-0.295,7.26761-0.52524,3.23409-.30772,6.46392-0.68563,9.69581-1.03011,2.3263-.248,4.65293-0.49054,7.093-0.74749l-0.25485-1.232C82.34576,54.98648,74.1751,56.36209,65.98213,57.4162Zm26.92425,5.38133c-0.74385-1.29884-1.86288-.943-2.84621-0.887-1.565.08926-3.129,0.24176-4.69243,0.38465-1.22926.11235-2.45841,0.23474-3.68519,0.38086-1.96993.23462-3.93963,0.47521-5.90619,0.74482q-3.94279.54049-7.87841,1.14732a1.79091,1.79091,0,0,0-.61777.5143,1.89012,1.89012,0,0,0,.75588.43428,20.075,20.075,0,0,0,2.00831-.19647c2.75621-.28,5.51329-0.54732,8.26878-0.83751,2.23207-.23507,4.46294-0.48918,6.69326-0.74757C87.59448,63.43539,90.18143,63.12162,92.90638,62.79753ZM65.12424,55.40616l-0.24751.32134a2.28106,2.28106,0,0,0,.86014.87228,15.45042,15.45042,0,0,0,3.0226-.13989c2.92576-.39566,5.83939-0.92946,8.76949-1.2596,4.05536-.45691,8.1219-0.76978,12.18173-1.174a2.30132,2.30132,0,0,0,.77808-0.467,2.04756,2.04756,0,0,0-.84368-0.44615c-1.66807.08409-3.33541,0.2337-5.00228,0.37544-4.43252.37692-8.86614,0.73659-13.29635,1.15314C69.26885,54.837,67.19811,55.14773,65.12424,55.40616Zm1.73974,5.1289c8.092-.9854,16.11222-1.962,24.13249-2.93869l0.09921-.30067a2.94665,2.94665,0,0,0-1.09839-.39913q-5.07409.39145-10.14394,0.8805c-4.419.42926-8.83547,0.9-13.38729,1.36661ZM90.70976,46.934l-0.048-.28736c-1.51489.11788-3.03328,0.1911-4.54386,0.36314-2.89473.32968-5.78281,0.74256-8.67764,1.07048-3.05023.34553-6.1094,0.58321-9.15681,0.95689-3.75017.45986-7.49075,1.02648-11.23812,1.5198-4.19025.5516-8.38349,1.07287-12.57541,1.6076a0.69938,0.69938,0,0,0-.32914.05635,2.24955,2.24955,0,0,0-.3106.40394,0.92847,0.92847,0,0,0,.40846.25051c1.26267-.13907,2.5238-0.30194,3.78379-0.4732,4.2268-.57452,8.45114-1.1741,12.67991-1.728,3.7445-.49046,7.49274-0.94332,11.241-1.39385,5.61364-.67476,11.229-1.329,16.84271-2.00326C89.43048,47.19965,90.0687,47.05009,90.70976,46.934ZM67.25095,63.82006c4.22439-.49047,8.339-0.97859,12.45548-1.44319s8.23465-.90567,12.35209-1.357l0.03206-.52636a4.44347,4.44347,0,0,0-1.13761-.2138c-3.87472.28441-7.752,0.54213-11.62105,0.92354-3.723.367-7.43565,0.89371-11.15666,1.29874C67.23661,62.60413,67.017,63.00082,67.25095,63.82006Zm23.9984-5.323a15.798,15.798,0,0,0-1.76314.009c-3.48751.41778-6.97,0.89825-10.45952,1.28756-3.78344.42208-7.5738,0.7542-11.35755,1.17262a2.25239,2.25239,0,0,0-.80832.67264L67.107,61.95825l24.31978-2.57484Zm0.52493,5.53173-0.04333-.36337L67.66336,66.32443l-0.07493.42944a1.71965,1.71965,0,0,0,.69216.43172A26.93238,26.93238,0,0,0,72.08,67.07179c5.10631-.69971,10.20633-1.4623,15.30535-2.23049C88.8541,64.62,90.31163,64.30227,91.77428,64.02875ZM58.921,61.29867c-0.13135-1.24218-.13212-1.30376-1.10867-1.25773q-6.62062.31212-13.24036,0.69221c-1.02909.0574-1.22974,0.69342-1.00764,1.652Zm1.33428,5.49045c-1.59123,0-3.04953-.03917-4.50805.00739-4.19187.13384-8.38391,0.31412-12.57573,0.4465-0.76247.02409-.94826,0.436-1.044,1.21907,0.49753,0,.93037.02515,1.36134-0.00431,1.99716-.13648,3.99336-0.33625,5.99068-0.42276,2.80832-.12164,5.61735-0.16169,8.42608-0.24206a6.62269,6.62269,0,0,1,.66717-0.07656c0.54973,0.04315,1.09517.12433,1.64344,0.19043ZM4.26148,32.98274c1.52476-4.33411,3.1822-8.43961,6.95182-11.532-1.67808-.41019-2.66413.77941-3.63545,1.66866C4.94642,25.5285,2.74636,30.50784,4.26148,32.98274Zm30.96428,9.89265a2.66842,2.66842,0,0,0-2.62692.46476A21.21867,21.21867,0,0,0,26.7909,52.0074a14.601,14.601,0,0,0-.51441,2.80014c1.81349-2.993,3.49127-5.79527,5.20479-8.57631A9.03981,9.03981,0,0,1,35.22576,42.87539ZM42.796,66.092l0.00332,0.56454c1.14029,0,2.28113.04561,3.42076-.00809,4.26579-.201,8.53115-0.43625,12.79675-0.65319,0.40113-.0204.80292-0.00271,1.21905-0.00271,0.19152-.91729-0.25976-1.00916-0.86467-0.949-0.635.06321-1.27021,0.14544-1.90572,0.17282-3.7089.15975-7.41824,0.28414-11.1267,0.46914C45.15669,65.7445,43.97687,65.95226,42.796,66.092Zm0.877-6.26548,0.2171,0.34291c4.70785-.29971,9.41567-0.59939,14.16775-0.90191-0.29-1.30052-1.16121-1.02948-1.8574-.99346-1.82859.09452-3.65621,0.25048-5.484,0.38609-2.12662.15775-4.25428,0.30026-6.37781,0.5079A1.887,1.887,0,0,0,43.673,59.82648ZM42.9433,64.97589l0.16513,0.35364c0.3656-.043.731-0.08884,1.09687-0.1287,1.71312-.18664,3.42552-0.462,5.13973-0.53784,3.23589-.1432,6.47281-0.15779,9.70937-0.26577a3.62423,3.62423,0,0,0,1.09488-.431,3.09753,3.09753,0,0,0-1.133-.51661c-1.2331.00169-2.47093,0.115-3.706,0.20761-3.84666.28861-7.69327,0.57975-11.53853,0.89846A2.59636,2.59636,0,0,0,42.9433,64.97589Zm25.65552,3.52383,0.01165,0.19822a10.58161,10.58161,0,0,0,1.189-.00641c2.00307-.22708,4.00347-0.4879,6.00671-0.7125,1.52127-.17056,3.05315-0.23842,4.56665-0.468,3.65886-.555,7.30638-1.20671,10.96538-1.76015,1.6074-.24312,3.18269-0.422,4.39552-1.753a0.87859,0.87859,0,0,0,.011-1.43553,6.57145,6.57145,0,0,0-1.35318-.69422,1.046,1.046,0,0,0,.35422.78725,0.77751,0.77751,0,0,1-.17389,1.32562,8.76253,8.76253,0,0,1-2.66058,1.20569c-3.30044.62538-6.6177,1.15953-9.93931,1.62774-3.585.50533-7.18223,0.8963-10.7738,1.34086C70.33107,68.26265,69.46524,68.38452,68.59882,68.49972ZM19.12621,47.94554a28.175,28.175,0,0,1,7.89868-12.129,6.32472,6.32472,0,0,0-2.55881.95155,8.69322,8.69322,0,0,0-1.89664,2.25069C20.83907,41.76768,19.27789,44.59567,19.12621,47.94554Zm24.564,10.53381,13.378-.97865C55.7595,56.21782,44.54438,56.99855,43.69023,58.47935ZM59.5356,62.64506l0.08807-.51035a5.5638,5.5638,0,0,0-1.35835-.23037c-0.88837.06527-1.77007,0.31066-2.65824,0.37128-3.70282.25281-7.40726,0.45591-11.11021,0.70526a4.4306,4.4306,0,0,0-1.08027.36791l0.0975,0.45057ZM10.95208,39.95321C13.04557,35.6721,14.2407,30.874,19.22491,28.831,15.53532,27.94465,10.52212,36.23514,10.95208,39.95321ZM41.36133,63.88892c1.08139-.68507,1.67581-7.68976,1.028-11.244L40.3604,56.6407a5.18245,5.18245,0,0,0,.96541-1.13522c0.24333-.34429.49912-0.68,0.74941-1.01954l0.30843,0.20668q-0.93382,1.8882-1.86762,3.7764l0.13433,0.07581,1.60843-2.18746,0.41075,0.2313Q41.3141,59.11481,39.95872,61.641l0.07178,0.03662q0.99132-1.30664,1.98267-2.6133L42.427,59.279l-1.72127,3.46072,1.164-.83294,0.20211,0.1922C41.85667,62.641,41.64153,63.183,41.36133,63.88892Zm0.29138,5.79528L41.64,70.17047l16.9571-.96385-0.0057-.33159c-2.82052.12484-5.64109,0.24191-8.46149,0.37667C47.30405,69.38671,44.47841,69.53931,41.65271,69.6842ZM37.45859,57.69876c-1.1667,1.51113-1.17423,2.633-.053,9.07711a4.96955,4.96955,0,0,0,1.15017,1.64687l0.31708-.17584A21.54657,21.54657,0,0,1,37.45859,57.69876Zm34.37019-11.5131-0.00449.10176c0.992-.11838,1.98406-0.235,2.97584-0.35546q4.95468-.60179,9.90929-1.20531c2.31862-.281,4.63887-0.54483,6.95477-0.85293a2.77357,2.77357,0,0,0,.84-0.45972l-0.09832-.13709Q82.11732,44.73127,71.82878,46.18566Zm-19.7992,2.38277,0.08272,0.31983,18.18313-2.60065L70.27266,46.063Zm34.129-5.51424-0.03027-.279L72.01247,44.68405l0.02312,0.21584Q79.09709,43.97707,86.15859,43.05419ZM39.54982,55.84626l0.26358,0.14812q1.25387-2.20028,2.50777-4.40056l-0.261-.13978Q40.805,53.65015,39.54982,55.84626Z"/><text x="0" y="115" fill="#000000" font-size="5px" font-weight="bold" font-family="'Helvetica Neue', Helvetica, Arial-Unicode, Arial, Sans-serif">Created by Tatyana</text><text x="0" y="120" fill="#000000" font-size="5px" font-weight="bold" font-family="'Helvetica Neue', Helvetica, Arial-Unicode, Arial, Sans-serif">from the Noun Project</text></svg>