<svg xmlns="http://www.w3.org/2000/svg" xmlns:xlink="http://www.w3.org/1999/xlink" version="1.1" x="0px" y="0px" viewBox="0 0 128 160" style="enable-background:new 0 0 128 128;" xml:space="preserve"><g><path d="M54,19c-19.3,0-35,15.7-35,35s15.7,35,35,35s35-15.7,35-35S73.3,19,54,19z M31,56c-1.7,0-3-1.3-3-3s1.3-3,3-3s3,1.3,3,3   S32.7,56,31,56z M54,34c-6.2,0-12,2.8-15.8,7.7c-0.6,0.8-1.5,1.2-2.4,1.2c-0.6,0-1.3-0.2-1.8-0.6c-1.3-1-1.5-2.9-0.5-4.2   C38.4,31.7,45.9,28,54,28c1.7,0,3,1.3,3,3S55.7,34,54,34z"/><path d="M116.3,102.2c-3.6-3.6-8.1-6.2-13.1-7.6l-0.3-0.1c-3.5-1-6.8-2.8-9.5-5.2C101.9,79.9,107,67.5,107,54c0-29.2-23.8-53-53-53   C24.8,1,1,24.8,1,54s23.8,53,53,53c13.5,0,25.9-5.1,35.2-13.5c3.5,3.2,7.6,5.5,12.1,6.7l0.3,0.1c3.9,1.1,7.5,3.2,10.4,6.1l7.3,7.3   c1.6,1.6,1.6,4.1,0,5.7c-1.6,1.6-4.1,1.6-5.7,0l-11.5-11.5c-1.2-1.2-3.1-1.2-4.2,0c-1.2,1.2-1.2,3.1,0,4.2l11.5,11.5   c1.9,1.9,4.5,2.9,7.1,2.9s5.1-1,7.1-2.9c3.9-3.9,3.9-10.2,0-14.1L116.3,102.2z M54,101C28.1,101,7,79.9,7,54S28.1,7,54,7   s47,21.1,47,47S79.9,101,54,101z"/></g><text x="0" y="143" fill="#000000" font-size="5px" font-weight="bold" font-family="'Helvetica Neue', Helvetica, Arial-Unicode, Arial, Sans-serif">Created by Kokota</text><text x="0" y="148" fill="#000000" font-size="5px" font-weight="bold" font-family="'Helvetica Neue', Helvetica, Arial-Unicode, Arial, Sans-serif">from the Noun Project</text></svg>