<svg xmlns="http://www.w3.org/2000/svg" xmlns:xlink="http://www.w3.org/1999/xlink" version="1.1" x="0px" y="0px" viewBox="0 0 100 125" enable-background="new 0 0 100 100" xml:space="preserve"><g><path fill="#000000" d="M50.1,95.2C25.2,95.2,5,74.9,5,50C5,25.1,25.2,4.8,50.1,4.8c24.9,0,45.2,20.3,45.2,45.2   C95.3,74.9,75.1,95.2,50.1,95.2z M50.1,8.8C27.4,8.8,9,27.3,9,50s18.5,41.2,41.2,41.2S91.3,72.7,91.3,50S72.8,8.8,50.1,8.8z"/></g><path fill="#000000" d="M58.4,41.7V20.8H41.6v20.9H20.7v16.9h20.9v20.9h16.9V58.6h20.9V41.7H58.4z M23.7,55.6V44.7H27l1.8,10.9H23.7  z M29.8,55.6L28,44.7h7.9l1.8,10.9H29.8z M44.6,76.5V55.6h-5.9L37,44.7h7.6v-0.4l5,32.1H44.6z M55.4,55.6v20.9h-4.8l-6.1-38.6V23.8  h5.8l5.3,31.8H55.4z M56.8,55.6l-5.3-31.8h4v20.9h7.8l1.8,10.9H56.8z M66.1,55.6l-1.8-10.9h7.1L73,55.6H66.1z M76.4,55.6h-2.3  l-1.7-10.9h4V55.6z"/><text x="0" y="115" fill="#000000" font-size="5px" font-weight="bold" font-family="'Helvetica Neue', Helvetica, Arial-Unicode, Arial, Sans-serif">Created by Sumana Chamrunworakiat</text><text x="0" y="120" fill="#000000" font-size="5px" font-weight="bold" font-family="'Helvetica Neue', Helvetica, Arial-Unicode, Arial, Sans-serif">from the Noun Project</text></svg>