<svg xmlns="http://www.w3.org/2000/svg" xmlns:xlink="http://www.w3.org/1999/xlink" version="1.1" x="0px" y="0px" viewBox="0 0 100 125" enable-background="new 0 0 100 100" xml:space="preserve"><g><path d="M26.2,33.7c4.1,0,7.4-3.3,7.4-7.4c0-4.1-3.3-7.4-7.4-7.4s-7.4,3.3-7.4,7.4C18.8,30.4,22.1,33.7,26.2,33.7z M26.2,20.6   c3.1,0,5.7,2.5,5.7,5.7S29.3,32,26.2,32s-5.7-2.5-5.7-5.7S23.1,20.6,26.2,20.6z"/><path d="M50,33.7c4.1,0,7.4-3.3,7.4-7.4c0-4.1-3.3-7.4-7.4-7.4s-7.4,3.3-7.4,7.4C42.6,30.4,45.9,33.7,50,33.7z M50,20.6   c3.1,0,5.7,2.5,5.7,5.7S53.1,32,50,32s-5.7-2.5-5.7-5.7S46.9,20.6,50,20.6z"/><path d="M73.8,18.9c-4.1,0-7.4,3.3-7.4,7.4c0,4.1,3.3,7.4,7.4,7.4s7.4-3.3,7.4-7.4C81.2,22.2,77.9,18.9,73.8,18.9z M73.8,32   c-3.1,0-5.7-2.5-5.7-5.7s2.5-5.7,5.7-5.7s5.7,2.5,5.7,5.7S76.9,32,73.8,32z"/><path d="M26.2,57.4c4.1,0,7.4-3.3,7.4-7.4s-3.3-7.4-7.4-7.4s-7.4,3.3-7.4,7.4S22.1,57.4,26.2,57.4z M26.2,44.3   c3.1,0,5.7,2.5,5.7,5.7s-2.5,5.7-5.7,5.7s-5.7-2.5-5.7-5.7S23.1,44.3,26.2,44.3z"/><path d="M50,57.4c4.1,0,7.4-3.3,7.4-7.4s-3.3-7.4-7.4-7.4s-7.4,3.3-7.4,7.4S45.9,57.4,50,57.4z M50,44.3c3.1,0,5.7,2.5,5.7,5.7   s-2.5,5.7-5.7,5.7s-5.7-2.5-5.7-5.7S46.9,44.3,50,44.3z"/><path d="M73.8,42.6c-4.1,0-7.4,3.3-7.4,7.4s3.3,7.4,7.4,7.4s7.4-3.3,7.4-7.4S77.9,42.6,73.8,42.6z M73.8,55.7   c-3.1,0-5.7-2.5-5.7-5.7s2.5-5.7,5.7-5.7s5.7,2.5,5.7,5.7S76.9,55.7,73.8,55.7z"/><path d="M33.6,73.7c0-4.1-3.3-7.4-7.4-7.4s-7.4,3.3-7.4,7.4c0,4.1,3.3,7.4,7.4,7.4S33.6,77.8,33.6,73.7z M26.2,79.4   c-3.1,0-5.7-2.5-5.7-5.7s2.5-5.7,5.7-5.7s5.7,2.5,5.7,5.7S29.3,79.4,26.2,79.4z"/><path d="M50,81.1c4.1,0,7.4-3.3,7.4-7.4c0-4.1-3.3-7.4-7.4-7.4s-7.4,3.3-7.4,7.4C42.6,77.8,45.9,81.1,50,81.1z M50,68   c3.1,0,5.7,2.5,5.7,5.7s-2.5,5.7-5.7,5.7s-5.7-2.5-5.7-5.7S46.9,68,50,68z"/><path d="M73.8,66.3c-4.1,0-7.4,3.3-7.4,7.4c0,4.1,3.3,7.4,7.4,7.4s7.4-3.3,7.4-7.4C81.2,69.6,77.9,66.3,73.8,66.3z M73.8,79.4   c-3.1,0-5.7-2.5-5.7-5.7s2.5-5.7,5.7-5.7s5.7,2.5,5.7,5.7S76.9,79.4,73.8,79.4z"/></g><text x="0" y="115" fill="#000000" font-size="5px" font-weight="bold" font-family="'Helvetica Neue', Helvetica, Arial-Unicode, Arial, Sans-serif">Created by darwis</text><text x="0" y="120" fill="#000000" font-size="5px" font-weight="bold" font-family="'Helvetica Neue', Helvetica, Arial-Unicode, Arial, Sans-serif">from the Noun Project</text></svg>